# xmcd
#
# Track frame offsets: 
#        150
#        16272
#        37800
#        52722
#        69550
#        88890
#        108970
#        125227
#        141887
#        159832
#
# Disc length: 2373 seconds
#
# Revision: 0
# Processed by: cddbd v1.5.1PL0 Copyright (c) Steve Scherf et al.
# Submitted via: ExactAudioCopy v0.95a5
#
DISCID=7a09430a
DTITLE=Sons of the Desert - Unreleased 2nd Sony Album
DYEAR=1999
DGENRE=Country
TTITLE0=Albuquerque
TTITLE1=Faith in Atlanta
TTITLE2=Lost
TTITLE3=She Knows My Heart
TTITLE4=Goodbye Earl
TTITLE5=Any Love at All
TTITLE6=What About You
TTITLE7=Candle for a Cowboy
TTITLE8=Running Away with You
TTITLE9=I'm on Our Side
EXTD=
EXTT0=
EXTT1=
EXTT2=
EXTT3=
EXTT4=
EXTT5=
EXTT6=
EXTT7=
EXTT8=
EXTT9=
PLAYORDER=
